<mxfile host="www.draw.io" modified="2019-11-30T12:58:47.521Z" agent="Mozilla/5.0 (Windows NT 10.0; Win64; x64; rv:70.0) Gecko/20100101 Firefox/70.0" etag="ccHeFkIBfFTfOQDeW5D5" version="12.3.3" type="github" pages="2">
  <diagram id="jON-aN_TaO98lZf0P_H7" name="Modello EntitÃ -Associazione">
    <mxGraphModel dx="1673" dy="931" grid="1" gridSize="10" guides="1" tooltips="1" connect="1" arrows="1" fold="1" page="1" pageScale="1" pageWidth="1169" pageHeight="826" math="0" shadow="0">
      <root>
        <mxCell id="0"/>
        <mxCell id="1" parent="0"/>
        <object label="ATLETA" Atleta="Atleta" placeholders="1" id="KN2ZPieh-mJuSXo25eLq-1">
          <mxCell style="whiteSpace=wrap;html=1;align=center;fontSize=41;fontFamily=Verdana;horizontal=1;" vertex="1" parent="1">
            <mxGeometry x="250" y="170" width="260" height="120" as="geometry"/>
          </mxCell>
        </object>
        <mxCell id="fFfkt5mpjkAdRkeiQmf_-52" style="edgeStyle=orthogonalEdgeStyle;rounded=0;orthogonalLoop=1;jettySize=auto;html=1;exitX=0.5;exitY=1;exitDx=0;exitDy=0;entryX=0.193;entryY=0;entryDx=0;entryDy=0;entryPerimeter=0;endArrow=none;endFill=0;fontFamily=Verdana;fontSize=12;" edge="1" parent="1" source="KN2ZPieh-mJuSXo25eLq-4" target="KN2ZPieh-mJuSXo25eLq-1">
          <mxGeometry relative="1" as="geometry"/>
        </mxCell>
        <mxCell id="KN2ZPieh-mJuSXo25eLq-4" value="&lt;div&gt;Nome&lt;/div&gt;" style="ellipse;whiteSpace=wrap;html=1;align=center;" vertex="1" parent="1">
          <mxGeometry x="250" y="30" width="100" height="40" as="geometry"/>
        </mxCell>
        <mxCell id="fFfkt5mpjkAdRkeiQmf_-53" style="edgeStyle=orthogonalEdgeStyle;rounded=0;orthogonalLoop=1;jettySize=auto;html=1;exitX=0.5;exitY=1;exitDx=0;exitDy=0;entryX=0.615;entryY=0;entryDx=0;entryDy=0;entryPerimeter=0;endArrow=none;endFill=0;fontFamily=Verdana;fontSize=12;" edge="1" parent="1" source="KN2ZPieh-mJuSXo25eLq-6" target="KN2ZPieh-mJuSXo25eLq-1">
          <mxGeometry relative="1" as="geometry"/>
        </mxCell>
        <mxCell id="KN2ZPieh-mJuSXo25eLq-6" value="&lt;div&gt;Cognome&lt;/div&gt;" style="ellipse;whiteSpace=wrap;html=1;align=center;" vertex="1" parent="1">
          <mxGeometry x="360" y="30" width="100" height="40" as="geometry"/>
        </mxCell>
        <mxCell id="fFfkt5mpjkAdRkeiQmf_-54" style="edgeStyle=orthogonalEdgeStyle;rounded=0;orthogonalLoop=1;jettySize=auto;html=1;exitX=0.5;exitY=1;exitDx=0;exitDy=0;endArrow=none;endFill=0;fontFamily=Verdana;fontSize=12;" edge="1" parent="1" source="KN2ZPieh-mJuSXo25eLq-8">
          <mxGeometry relative="1" as="geometry">
            <mxPoint x="250" y="180" as="targetPoint"/>
            <Array as="points">
              <mxPoint x="110" y="180"/>
              <mxPoint x="250" y="180"/>
            </Array>
          </mxGeometry>
        </mxCell>
        <mxCell id="KN2ZPieh-mJuSXo25eLq-8" value="Data di nascita" style="ellipse;whiteSpace=wrap;html=1;align=center;" vertex="1" parent="1">
          <mxGeometry x="60" y="110" width="100" height="40" as="geometry"/>
        </mxCell>
        <mxCell id="KN2ZPieh-mJuSXo25eLq-9" value="NAZIONE" style="whiteSpace=wrap;html=1;align=center;fontFamily=Verdana;fontSize=41;" vertex="1" parent="1">
          <mxGeometry x="250" y="690" width="260" height="120" as="geometry"/>
        </mxCell>
        <mxCell id="KN2ZPieh-mJuSXo25eLq-10" value="&lt;div&gt;Compete&lt;/div&gt;" style="shape=rhombus;html=1;dashed=0;whitespace=wrap;perimeter=rhombusPerimeter;" vertex="1" parent="1">
          <mxGeometry x="270" y="435" width="220" height="110" as="geometry"/>
        </mxCell>
        <mxCell id="KN2ZPieh-mJuSXo25eLq-11" value="" style="endArrow=none;html=1;rounded=0;entryX=0.5;entryY=0;entryDx=0;entryDy=0;exitX=0.5;exitY=1;exitDx=0;exitDy=0;" edge="1" parent="1" source="KN2ZPieh-mJuSXo25eLq-1" target="KN2ZPieh-mJuSXo25eLq-10">
          <mxGeometry relative="1" as="geometry">
            <mxPoint x="300" y="360" as="sourcePoint"/>
            <mxPoint x="460" y="360" as="targetPoint"/>
          </mxGeometry>
        </mxCell>
        <mxCell id="KN2ZPieh-mJuSXo25eLq-12" value="(1,1)" style="resizable=0;html=1;align=left;verticalAlign=bottom;" connectable="0" vertex="1" parent="KN2ZPieh-mJuSXo25eLq-11">
          <mxGeometry x="-1" relative="1" as="geometry">
            <mxPoint y="20" as="offset"/>
          </mxGeometry>
        </mxCell>
        <mxCell id="KN2ZPieh-mJuSXo25eLq-14" value="" style="endArrow=none;html=1;rounded=0;exitX=0.5;exitY=1;exitDx=0;exitDy=0;entryX=0.5;entryY=0;entryDx=0;entryDy=0;" edge="1" parent="1" source="KN2ZPieh-mJuSXo25eLq-10" target="KN2ZPieh-mJuSXo25eLq-9">
          <mxGeometry relative="1" as="geometry">
            <mxPoint x="330" y="610" as="sourcePoint"/>
            <mxPoint x="490" y="610" as="targetPoint"/>
          </mxGeometry>
        </mxCell>
        <mxCell id="KN2ZPieh-mJuSXo25eLq-15" value="(0,n)" style="resizable=0;html=1;align=right;verticalAlign=bottom;" connectable="0" vertex="1" parent="KN2ZPieh-mJuSXo25eLq-14">
          <mxGeometry x="1" relative="1" as="geometry"/>
        </mxCell>
        <object label="TORNEO" Atleta="Atleta" placeholders="1" id="KN2ZPieh-mJuSXo25eLq-17">
          <mxCell style="whiteSpace=wrap;html=1;align=center;fontSize=41;fontFamily=Verdana;horizontal=1;" vertex="1" parent="1">
            <mxGeometry x="780" y="430" width="260" height="120" as="geometry"/>
          </mxCell>
        </object>
        <mxCell id="KN2ZPieh-mJuSXo25eLq-18" value="" style="endArrow=none;html=1;rounded=0;fontFamily=Verdana;fontSize=41;exitX=1;exitY=0.5;exitDx=0;exitDy=0;entryX=0;entryY=0.5;entryDx=0;entryDy=0;" edge="1" parent="1" source="KN2ZPieh-mJuSXo25eLq-10" target="KN2ZPieh-mJuSXo25eLq-17">
          <mxGeometry relative="1" as="geometry">
            <mxPoint x="550" y="490" as="sourcePoint"/>
            <mxPoint x="710" y="490" as="targetPoint"/>
          </mxGeometry>
        </mxCell>
        <mxCell id="KN2ZPieh-mJuSXo25eLq-19" value="(1,n)" style="resizable=0;html=1;align=right;verticalAlign=bottom;" connectable="0" vertex="1" parent="KN2ZPieh-mJuSXo25eLq-18">
          <mxGeometry x="1" relative="1" as="geometry"/>
        </mxCell>
        <mxCell id="KN2ZPieh-mJuSXo25eLq-25" style="edgeStyle=orthogonalEdgeStyle;rounded=0;orthogonalLoop=1;jettySize=auto;html=1;entryX=0;entryY=0.167;entryDx=0;entryDy=0;entryPerimeter=0;endArrow=none;endFill=0;fontFamily=Verdana;fontSize=12;" edge="1" parent="1" source="KN2ZPieh-mJuSXo25eLq-22" target="KN2ZPieh-mJuSXo25eLq-9">
          <mxGeometry relative="1" as="geometry"/>
        </mxCell>
        <mxCell id="KN2ZPieh-mJuSXo25eLq-22" value="Nome" style="ellipse;whiteSpace=wrap;html=1;align=center;fontStyle=4" vertex="1" parent="1">
          <mxGeometry x="60" y="690" width="100" height="40" as="geometry"/>
        </mxCell>
        <object label="OLIMPIADI" Atleta="Atleta" placeholders="1" id="fFfkt5mpjkAdRkeiQmf_-3">
          <mxCell style="whiteSpace=wrap;html=1;align=center;fontSize=41;fontFamily=Verdana;horizontal=1;" vertex="1" parent="1">
            <mxGeometry x="1510" y="430" width="260" height="120" as="geometry"/>
          </mxCell>
        </object>
        <mxCell id="fFfkt5mpjkAdRkeiQmf_-5" value="Organizza" style="shape=rhombus;html=1;dashed=0;whitespace=wrap;perimeter=rhombusPerimeter;" vertex="1" parent="1">
          <mxGeometry x="1180" y="435" width="220" height="110" as="geometry"/>
        </mxCell>
        <mxCell id="fFfkt5mpjkAdRkeiQmf_-19" value="Ospita" style="shape=rhombus;html=1;dashed=0;whitespace=wrap;perimeter=rhombusPerimeter;" vertex="1" parent="1">
          <mxGeometry x="940" y="695" width="220" height="110" as="geometry"/>
        </mxCell>
        <mxCell id="fFfkt5mpjkAdRkeiQmf_-26" value="" style="edgeStyle=segmentEdgeStyle;endArrow=oval;html=1;fontFamily=Verdana;fontSize=12;endFill=1;" edge="1" parent="1">
          <mxGeometry width="50" height="50" relative="1" as="geometry">
            <mxPoint x="1600" y="610" as="sourcePoint"/>
            <mxPoint x="1820" y="430" as="targetPoint"/>
          </mxGeometry>
        </mxCell>
        <mxCell id="fFfkt5mpjkAdRkeiQmf_-30" value="" style="endArrow=none;html=1;rounded=0;fontFamily=Verdana;fontSize=12;entryX=0;entryY=0.5;entryDx=0;entryDy=0;exitX=1;exitY=0.5;exitDx=0;exitDy=0;" edge="1" parent="1" source="KN2ZPieh-mJuSXo25eLq-9" target="fFfkt5mpjkAdRkeiQmf_-19">
          <mxGeometry relative="1" as="geometry">
            <mxPoint x="660" y="750" as="sourcePoint"/>
            <mxPoint x="820" y="750" as="targetPoint"/>
          </mxGeometry>
        </mxCell>
        <mxCell id="fFfkt5mpjkAdRkeiQmf_-31" value="(0,n)" style="resizable=0;html=1;align=left;verticalAlign=bottom;" connectable="0" vertex="1" parent="fFfkt5mpjkAdRkeiQmf_-30">
          <mxGeometry x="-1" relative="1" as="geometry"/>
        </mxCell>
        <mxCell id="fFfkt5mpjkAdRkeiQmf_-33" value="" style="endArrow=none;html=1;rounded=0;fontFamily=Verdana;fontSize=12;exitX=1;exitY=0.5;exitDx=0;exitDy=0;entryX=0.5;entryY=1;entryDx=0;entryDy=0;" edge="1" parent="1" source="fFfkt5mpjkAdRkeiQmf_-19" target="fFfkt5mpjkAdRkeiQmf_-3">
          <mxGeometry relative="1" as="geometry">
            <mxPoint x="1360" y="750" as="sourcePoint"/>
            <mxPoint x="1520" y="750" as="targetPoint"/>
            <Array as="points">
              <mxPoint x="1640" y="750"/>
            </Array>
          </mxGeometry>
        </mxCell>
        <mxCell id="fFfkt5mpjkAdRkeiQmf_-35" value="(1,1)" style="resizable=0;html=1;align=right;verticalAlign=bottom;" connectable="0" vertex="1" parent="fFfkt5mpjkAdRkeiQmf_-33">
          <mxGeometry x="1" relative="1" as="geometry">
            <mxPoint x="30" y="20" as="offset"/>
          </mxGeometry>
        </mxCell>
        <mxCell id="fFfkt5mpjkAdRkeiQmf_-38" style="edgeStyle=orthogonalEdgeStyle;rounded=0;orthogonalLoop=1;jettySize=auto;html=1;exitX=0;exitY=0.5;exitDx=0;exitDy=0;entryX=1;entryY=0.5;entryDx=0;entryDy=0;endArrow=none;endFill=0;fontFamily=Verdana;fontSize=12;" edge="1" parent="1" source="fFfkt5mpjkAdRkeiQmf_-37" target="fFfkt5mpjkAdRkeiQmf_-3">
          <mxGeometry relative="1" as="geometry"/>
        </mxCell>
        <mxCell id="fFfkt5mpjkAdRkeiQmf_-37" value="&lt;span style=&quot;border-bottom: 1px dotted&quot;&gt;Anno&lt;/span&gt;" style="ellipse;whiteSpace=wrap;html=1;align=center;" vertex="1" parent="1">
          <mxGeometry x="1920" y="470" width="100" height="40" as="geometry"/>
        </mxCell>
        <mxCell id="fFfkt5mpjkAdRkeiQmf_-39" value="" style="endArrow=none;html=1;rounded=0;fontFamily=Verdana;fontSize=12;exitX=1;exitY=0.5;exitDx=0;exitDy=0;entryX=0;entryY=0.5;entryDx=0;entryDy=0;" edge="1" parent="1" source="fFfkt5mpjkAdRkeiQmf_-5" target="fFfkt5mpjkAdRkeiQmf_-3">
          <mxGeometry relative="1" as="geometry">
            <mxPoint x="1400" y="470" as="sourcePoint"/>
            <mxPoint x="1560" y="470" as="targetPoint"/>
          </mxGeometry>
        </mxCell>
        <mxCell id="fFfkt5mpjkAdRkeiQmf_-41" value="(1,n)" style="resizable=0;html=1;align=right;verticalAlign=bottom;" connectable="0" vertex="1" parent="fFfkt5mpjkAdRkeiQmf_-39">
          <mxGeometry x="1" relative="1" as="geometry"/>
        </mxCell>
        <mxCell id="fFfkt5mpjkAdRkeiQmf_-42" value="" style="endArrow=none;html=1;rounded=0;fontFamily=Verdana;fontSize=12;exitX=1;exitY=0.5;exitDx=0;exitDy=0;entryX=0;entryY=0.5;entryDx=0;entryDy=0;" edge="1" parent="1" source="KN2ZPieh-mJuSXo25eLq-17" target="fFfkt5mpjkAdRkeiQmf_-5">
          <mxGeometry relative="1" as="geometry">
            <mxPoint x="1090" y="320" as="sourcePoint"/>
            <mxPoint x="1250" y="320" as="targetPoint"/>
          </mxGeometry>
        </mxCell>
        <mxCell id="fFfkt5mpjkAdRkeiQmf_-43" value="(1,1)" style="resizable=0;html=1;align=left;verticalAlign=bottom;" connectable="0" vertex="1" parent="fFfkt5mpjkAdRkeiQmf_-42">
          <mxGeometry x="-1" relative="1" as="geometry"/>
        </mxCell>
        <mxCell id="fFfkt5mpjkAdRkeiQmf_-45" value="" style="edgeStyle=segmentEdgeStyle;endArrow=oval;html=1;fontFamily=Verdana;fontSize=12;endFill=1;" edge="1" parent="1">
          <mxGeometry width="50" height="50" relative="1" as="geometry">
            <mxPoint x="790" y="400" as="sourcePoint"/>
            <mxPoint x="1120" y="580" as="targetPoint"/>
          </mxGeometry>
        </mxCell>
        <mxCell id="fFfkt5mpjkAdRkeiQmf_-51" style="edgeStyle=orthogonalEdgeStyle;rounded=0;orthogonalLoop=1;jettySize=auto;html=1;exitX=0.5;exitY=1;exitDx=0;exitDy=0;entryX=0.692;entryY=0;entryDx=0;entryDy=0;entryPerimeter=0;endArrow=none;endFill=0;fontFamily=Verdana;fontSize=12;" edge="1" parent="1" source="fFfkt5mpjkAdRkeiQmf_-46" target="KN2ZPieh-mJuSXo25eLq-17">
          <mxGeometry relative="1" as="geometry"/>
        </mxCell>
        <mxCell id="fFfkt5mpjkAdRkeiQmf_-46" value="&lt;span style=&quot;border-bottom: 1px dotted&quot;&gt;Sport&lt;/span&gt;" style="ellipse;whiteSpace=wrap;html=1;align=center;" vertex="1" parent="1">
          <mxGeometry x="910" y="260" width="100" height="40" as="geometry"/>
        </mxCell>
        <mxCell id="fFfkt5mpjkAdRkeiQmf_-50" style="edgeStyle=orthogonalEdgeStyle;rounded=0;orthogonalLoop=1;jettySize=auto;html=1;exitX=0.5;exitY=1;exitDx=0;exitDy=0;entryX=0.192;entryY=0;entryDx=0;entryDy=0;entryPerimeter=0;endArrow=none;endFill=0;fontFamily=Verdana;fontSize=12;" edge="1" parent="1" source="fFfkt5mpjkAdRkeiQmf_-47" target="KN2ZPieh-mJuSXo25eLq-17">
          <mxGeometry relative="1" as="geometry"/>
        </mxCell>
        <mxCell id="fFfkt5mpjkAdRkeiQmf_-47" value="&lt;span style=&quot;border-bottom: 1px dotted&quot;&gt;Sesso&lt;/span&gt;" style="ellipse;whiteSpace=wrap;html=1;align=center;" vertex="1" parent="1">
          <mxGeometry x="780" y="260" width="100" height="40" as="geometry"/>
        </mxCell>
        <mxCell id="fFfkt5mpjkAdRkeiQmf_-56" style="edgeStyle=orthogonalEdgeStyle;rounded=0;orthogonalLoop=1;jettySize=auto;html=1;exitX=1;exitY=0.5;exitDx=0;exitDy=0;entryX=0;entryY=0.583;entryDx=0;entryDy=0;entryPerimeter=0;endArrow=none;endFill=0;fontFamily=Verdana;fontSize=12;" edge="1" parent="1" source="fFfkt5mpjkAdRkeiQmf_-55" target="KN2ZPieh-mJuSXo25eLq-1">
          <mxGeometry relative="1" as="geometry"/>
        </mxCell>
        <mxCell id="fFfkt5mpjkAdRkeiQmf_-55" value="ID" style="ellipse;whiteSpace=wrap;html=1;align=center;fontStyle=4;" vertex="1" parent="1">
          <mxGeometry x="60" y="220" width="100" height="40" as="geometry"/>
        </mxCell>
      </root>
    </mxGraphModel>
  </diagram>
  <diagram id="bw1ageO8CZnEJFJSNUhw" name="Regole di vincolo">
    <mxGraphModel dx="1422" dy="791" grid="1" gridSize="10" guides="1" tooltips="1" connect="1" arrows="1" fold="1" page="1" pageScale="1" pageWidth="850" pageHeight="1100" math="0" shadow="0">
      <root>
        <mxCell id="ZEywUh0re646hpeiBd9O-0"/>
        <mxCell id="ZEywUh0re646hpeiBd9O-1" parent="ZEywUh0re646hpeiBd9O-0"/>
        <mxCell id="ZEywUh0re646hpeiBd9O-3" value="&lt;div&gt;Regole di vincolo:.&lt;br&gt;&lt;/div&gt;" style="text;html=1;resizable=0;autosize=1;align=left;verticalAlign=middle;points=[];fillColor=none;strokeColor=none;rounded=0;" vertex="1" parent="ZEywUh0re646hpeiBd9O-1">
          <mxGeometry x="15" y="20" width="120" height="20" as="geometry"/>
        </mxCell>
      </root>
    </mxGraphModel>
  </diagram>
</mxfile>
